<svg xmlns="http://www.w3.org/2000/svg" xmlns:xlink="http://www.w3.org/1999/xlink" version="1.1" x="0px" y="0px" viewBox="0 0 100 125" enable-background="new 0 0 100 100" xml:space="preserve"><g display="none"><g display="inline"><rect x="-350" y="-605.519" fill="#000000" width="1180" height="835.575"/><path fill="#000000" d="M830.51,230.608H-350.51v-836.68H830.51V230.608z M-349.49,229.504H829.49v-834.47H-349.49V229.504z"/></g></g><g><path d="M74.373,17.523c2.058-3.281,3.312-7.117,3.478-11.235H32.025c0.054,1.341,0.229,2.65,0.504,3.921H19.025   c0.104,2.596,0.828,5.029,2.011,7.172v2.828h-6.011c0.194,4.828,2.498,9.11,6.011,11.958v15.487   c-2.378,1.814-3.922,4.669-3.922,7.885c0,5.472,4.451,9.923,9.922,9.923h0.241c2.314,5.486,7.264,9.592,13.253,10.745v1.658h-1.244   c-7.401,0-13.422,6.021-13.422,13.423c0,0.378,0.025,0.749,0.056,1.117l0.108,1.306h44.518l0.108-1.306   c0.031-0.368,0.056-0.739,0.056-1.117c0-7.401-6.021-13.423-13.422-13.423h-1.911V76.31c6.376-0.979,11.662-5.285,14.013-11.098   h0.149c5.471,0,9.922-4.451,9.922-9.923c0-3.216-1.544-6.07-3.922-7.885V31.021c5.323-1.828,9.201-6.764,9.438-12.65h-9.803   C74.953,18.066,74.667,17.783,74.373,17.523z M25.614,62.473c-3.223-0.66-5.655-3.519-5.655-6.934s2.432-6.273,5.655-6.934V62.473z    M57.287,80.711c5.691,0,10.347,4.517,10.569,10.154H28.717c0.222-5.638,4.878-10.154,10.569-10.154h1.249   c0.048,4.052,3.355,7.334,7.418,7.334s7.37-3.282,7.418-7.334H57.287z M43.376,80.622v-4.109c0.195,0.006,0.385,0.029,0.581,0.029   h8.574v4.08c0,2.524-2.054,4.577-4.578,4.577S43.376,83.147,43.376,80.622z M67.864,58.459c0,8.402-6.835,15.237-15.238,15.237   h-8.67c-8.408,0-15.248-6.835-15.248-15.237v-4.64c1.703,3.578,5.343,6.062,9.562,6.062c0.516,0,1.02-0.05,1.516-0.121v0.779   c0,4.273,3.477,7.75,7.75,7.75h1.5c4.273,0,7.75-3.477,7.75-7.75v-0.779c0.497,0.072,1,0.121,1.516,0.121   c4.219,0,7.859-2.485,9.562-6.063V58.459z M51.595,49.289c0-3.698,3.009-6.708,6.708-6.708s6.708,3.01,6.708,6.708   s-3.009,6.708-6.708,6.708S51.595,52.987,51.595,49.289z M55.787,59.567v0.972c0,3.722-3.028,6.75-6.75,6.75h-1.5   c-3.722,0-6.75-3.028-6.75-6.75v-0.972c0.748-0.183,1.464-0.445,2.14-0.778h10.719C54.323,59.122,55.039,59.384,55.787,59.567z    M52.008,57.789h-7.443c1.707-1.268,3.02-3.031,3.722-5.081C48.989,54.758,50.301,56.522,52.008,57.789z M38.271,55.997   c-3.699,0-6.708-3.01-6.708-6.708s3.009-6.708,6.708-6.708s6.708,3.01,6.708,6.708S41.969,55.997,38.271,55.997z M67.864,44.76   c-1.702-3.578-5.342-6.063-9.562-6.063c-4.644,0-8.589,3.008-10.016,7.173c-1.427-4.166-5.372-7.173-10.016-7.173   c-4.219,0-7.859,2.485-9.562,6.062v-9.187c0.83,0.131,1.674,0.217,2.541,0.217c6.499,0,12.099-3.822,14.694-9.337   c2.762,1.179,5.8,1.837,8.994,1.837c2.075,0,4.084-0.281,5.996-0.798c1.85,1.922,4.239,3.314,6.931,3.931V44.76z M76.614,55.289   c0,3.415-2.432,6.273-5.655,6.934V48.356C74.182,49.016,76.614,51.874,76.614,55.289z"/><path d="M18.715,59.466c-0.41,0.09-0.81,0.18-1.22,0.27C17.905,59.696,18.315,59.616,18.715,59.466z"/></g><text x="0" y="115" fill="#000000" font-size="5px" font-weight="bold" font-family="'Helvetica Neue', Helvetica, Arial-Unicode, Arial, Sans-serif">Created by Oksana Latysheva</text><text x="0" y="120" fill="#000000" font-size="5px" font-weight="bold" font-family="'Helvetica Neue', Helvetica, Arial-Unicode, Arial, Sans-serif">from the Noun Project</text></svg>